<svg xmlns="http://www.w3.org/2000/svg" viewBox="0 0 631.39 180.79">
  <g id="Layer_2" data-name="Layer 2">
    <g id="Layer_1-2" data-name="Layer 1">
      <g>
        <path d="M46.39,1.05H63.55L109.9,107.16H90.34L79.7,81.73H29.84L19,107.16H0ZM72.88,65.32,54.7,23.18,36.64,65.32Z" fill="#fff"/>
        <path d="M116.82,54.78v-.3C116.82,24.53,139.25,0,171.16,0c19.41,0,31.15,6.77,41.24,16.41L200.51,30.1C192.08,22.27,183.05,17,171,17c-20.17,0-34.77,16.55-34.77,37.17v.3C136.24,75.1,150.84,92,171,92c12.94,0,21.22-5.27,30.25-13.7l11.89,12c-11,11.44-23,18.67-42.75,18.67C139.7,109,116.82,85,116.82,54.78Z" fill="#fff"/>
        <path d="M224.89,54.78v-.3C224.89,24.53,247.31,0,279.22,0c19.41,0,31.15,6.77,41.24,16.41L308.57,30.1C300.14,22.27,291.11,17,279.07,17,258.9,17,244.3,33.56,244.3,54.18v.3C244.3,75.1,258.9,92,279.07,92c12.94,0,21.22-5.27,30.25-13.7l11.89,12c-11,11.44-23,18.67-42.74,18.67C247.76,109,224.89,85,224.89,54.78Z" fill="#fff"/>
        <path d="M455,91.85,466.08,78.6c10.09,8.73,20.17,13.7,33.27,13.7C510.78,92.3,518,87,518,79.06v-.31c0-7.52-4.22-11.58-23.78-16.1-22.43-5.42-35.07-12-35.07-31.46v-.34c0-18.06,15-30.55,36-30.55C510.51.3,522.7,5,533.39,13.55l-9.93,14c-9.48-7.07-19-10.83-28.6-10.83-10.84,0-17.16,5.56-17.16,12.49v.3c0,8.13,4.82,11.74,25,16.56,22.27,5.41,33.86,13.39,33.86,30.85v.3c0,19.72-15.5,31.46-37.63,31.46A64.85,64.85,0,0,1,455,91.85Z" fill="#fff"/>
        <path d="M549.76,91.85,560.9,78.6c10.08,8.73,20.17,13.7,33.26,13.7,11.44,0,18.67-5.27,18.67-13.24v-.31c0-7.52-4.22-11.58-23.78-16.1C566.62,57.23,554,50.65,554,31.19v-.34C554,12.79,569,.3,590,.3,605.33.3,617.52,5,628.21,13.55l-9.94,14c-9.48-7.07-19-10.83-28.59-10.83-10.84,0-17.16,5.56-17.16,12.49v.3c0,8.13,4.82,11.74,25,16.56,22.28,5.41,33.87,13.39,33.87,30.85v.3c0,19.72-15.5,31.46-37.63,31.46A64.9,64.9,0,0,1,549.76,91.85Z" fill="#fff"/>
        <rect x="343.18" y="1.05" width="91.19" height="17.3" fill="#fff"/>
        <rect x="343.18" y="91.66" width="91.19" height="17.3" fill="#fff"/>
        <rect x="343.18" y="46.36" width="91.19" height="17.3" fill="#fff"/>
        <path d="M108.56,164.09,105.09,172H101.3l14-31.18H119L132.93,172h-3.87l-3.47-7.88ZM117,144.85l-7,15.82h14Z" fill="#fff"/>
        <path d="M165.37,140.79c6.27,0,10.06,2.9,10.06,7.8a6.77,6.77,0,0,1-5.74,7c4.49.67,7.12,3.61,7.12,7.89,0,5.3-4.18,8.46-11.22,8.46H152.23V140.79Zm-9.58,13.45h9.4c4.19,0,6.64-1.82,6.64-5.07s-2.45-4.95-6.64-4.95h-9.4Zm0,14.34h9.4c5.07,0,8-2,8-5.56,0-3.39-2.94-5.39-8-5.39h-9.4Z" fill="#fff"/>
        <path d="M188.2,153.71a8.77,8.77,0,0,1,8.41-5.35v3.49c-4.94-.09-8,3-8.41,7.62v12.47h-3.5V148.5h3.48Z" fill="#fff"/>
        <path d="M206.36,141.77a2.35,2.35,0,1,1,0-.11Zm-4,30.2V148.5h3.43V172Z" fill="#fff"/>
        <path d="M237,172h-3.48v-5a9.78,9.78,0,0,1-9.12,5.2c-6.68,0-11.31-4.94-11.31-11.93s4.63-11.89,11.26-11.89a9.79,9.79,0,0,1,9.17,5.25V138.92H237Zm-3.48-11.67c0-5.12-3.51-8.82-8.46-8.82s-8.5,3.7-8.5,8.82S220,169,225,169s8.46-3.66,8.46-8.73Z" fill="#fff"/>
        <path d="M267.17,169.52c0,6.85-4.67,11.17-11.8,11.17a15.77,15.77,0,0,1-9.62-3.38l1.6-2.67a12,12,0,0,0,7.89,3c5.12,0,8.46-3.11,8.46-8v-3.57a9.25,9.25,0,0,1-8.64,4.9c-6.33,0-10.69-4.67-10.69-11.35s4.32-11.18,10.6-11.23a9.37,9.37,0,0,1,8.73,4.9v-4.76h3.47Zm-3.47-9.8c0-4.9-3.34-8.33-8-8.33s-8,3.48-8.06,8.33A7.81,7.81,0,0,0,255.7,168c4.72,0,8-3.47,8-8.28Z" fill="#fff"/>
        <path d="M296.37,161.59H277.22a8.23,8.23,0,0,0,8.51,7.48,9.75,9.75,0,0,0,7.26-2.94l1.91,2.05a12.32,12.32,0,0,1-9.43,3.92c-6.91,0-11.67-4.85-11.67-11.84s4.8-11.85,11.62-11.85C293,148.36,296.7,153.62,296.37,161.59Zm-3.11-2.85c-.23-4.5-3.26-7.35-7.84-7.35a7.92,7.92,0,0,0-8.2,7.35Z" fill="#fff"/>
        <path d="M342,145.25,339.82,148A13.07,13.07,0,0,0,330.6,144a12.3,12.3,0,1,0-.7,24.59h.7a13.65,13.65,0,0,0,9.22-3.74l2.18,2.45a17.21,17.21,0,0,1-11.58,4.8,15.86,15.86,0,0,1-16.12-15.58v-.22c0-8.73,7.22-15.63,16.25-15.63A16.77,16.77,0,0,1,342,145.25Z" fill="#fff"/>
        <path d="M369.7,160.21c0,7-4.94,11.89-11.89,11.89s-11.89-4.85-11.89-11.89,4.95-11.8,11.89-11.8S369.7,153.22,369.7,160.21Zm-20.3,0c0,5.16,3.51,8.72,8.41,8.72s8.42-3.56,8.42-8.72-3.52-8.69-8.42-8.69-8.43,3.56-8.43,8.69Z" fill="#fff"/>
        <path d="M415.7,157.49V172h-3.5V158.43c0-4.19-2.45-6.64-6.5-6.64-4.85.13-7.66,3.61-7.66,8.64V172h-3.52V158.43c0-4.19-2.4-6.64-6.5-6.64-4.81.13-7.71,3.61-7.71,8.64V172h-3.42V148.5h3.42v5.35c1.57-3.66,4.73-5.39,9-5.44s7.43,2.28,8.41,6.15c1.47-4.14,4.77-6.1,9.27-6.15C412.43,148.36,415.7,151.85,415.7,157.49Z" fill="#fff"/>
        <path d="M448.48,160.3c0,6.95-4.54,11.8-11.18,11.8a9.83,9.83,0,0,1-9.13-5.16v13.67H424.7V148.5h3.47v5.07a9.77,9.77,0,0,1,9-5.21C443.85,148.36,448.48,153.26,448.48,160.3Zm-3.52-.09c0-5-3.47-8.73-8.37-8.73s-8.42,3.65-8.42,8.73,3.47,8.73,8.42,8.73,8.37-3.65,8.37-8.73Z" fill="#fff"/>
        <path d="M470.24,168.36c-1.87,2.54-4.85,3.78-8.59,3.78-4.86,0-8-3.11-8-7.17s3.25-6.68,8.78-6.72h7.7v-1.4c0-3.43-2.13-5.48-6.28-5.48a13,13,0,0,0-7.43,2.67L455,151.5a15.69,15.69,0,0,1,9.57-3.16c5.79,0,9,3.08,9,8.11V172h-3.38Zm0-4.5v-2.8h-7.31c-3.92,0-6,1.2-6,3.78s2.1,4.28,5.39,4.28c4,0,7-2,7.88-5.27Z" fill="#fff"/>
        <path d="M503.94,157.49V172h-3.47V158.43c0-4.14-2.5-6.59-6.64-6.59-4.63,0-7.48,3.07-7.88,7.52V172h-3.48V148.5H486v5.16c1.65-3.56,4.81-5.25,9.09-5.3C500.64,148.36,503.94,151.85,503.94,157.49Z" fill="#fff"/>
        <path d="M519.29,175.31c-1.47,3.6-3.92,5.48-7,5.48a7.43,7.43,0,0,1-4.94-1.74l1.47-2.9a5.54,5.54,0,0,0,3.3,1.12c1.82,0,3.33-1.12,4.27-3.3l1-2.18-9.71-23.29h3.65l7.8,19.37,7.43-19.37h3.57Z" fill="#fff"/>
      </g>
    </g>
  </g>
</svg>
