<svg id="Layer_1" data-name="Layer 1" xmlns="http://www.w3.org/2000/svg" viewBox="0 0 658.72 226.72"><defs><style>.cls-1{fill:#f7901f;}.cls-2{fill:#676767;}</style></defs><path class="cls-1" d="M59.22,29.22H76.38l46.36,106.1H103.17L92.48,109.89H42.67L31.83,135.32h-19ZM85.71,93.48,67.5,51.34,49.44,93.48Z"/><path class="cls-1" d="M129.66,83v-.3c0-29.95,22.42-54.49,54.33-54.49,19.41,0,31.15,6.78,41.24,16.41L213.34,58.26c-8.43-7.82-17.46-13.09-29.5-13.09-20.17,0-34.77,16.56-34.77,37.18v.3c0,20.62,14.6,37.47,34.77,37.47,12.94,0,21.22-5.26,30.25-13.69l11.89,12c-11,11.44-23,18.66-42.74,18.66C152.53,137.13,129.66,113.2,129.66,83Z"/><path class="cls-1" d="M237.72,83v-.3c0-29.95,22.42-54.49,54.33-54.49,19.42,0,31.16,6.78,41.24,16.41L321.4,58.26c-8.43-7.82-17.46-13.09-29.5-13.09-20.17,0-34.77,16.56-34.77,37.18v.3c0,20.62,14.6,37.47,34.77,37.47,12.94,0,21.22-5.26,30.25-13.69l11.89,12c-11,11.44-23,18.66-42.74,18.66C260.59,137.13,237.72,113.2,237.72,83Z"/><path class="cls-1" d="M467.78,120l11.14-13.24c10.08,8.73,20.16,13.69,33.26,13.69,11.44,0,18.66-5.26,18.66-13.24v-.3c0-7.53-4.21-11.59-23.78-16.11C484.64,85.36,472,78.73,472,59.32V59C472,41,487,28.46,508,28.46c15.36,0,27.55,4.67,38.23,13.25l-9.93,14c-9.48-7.08-19-10.84-28.6-10.84-10.83,0-17.16,5.57-17.16,12.49v.3c0,8.13,4.82,11.74,25,16.56,22.27,5.42,33.86,13.39,33.86,30.85v.3c0,19.72-15.5,31.46-37.62,31.46A64.88,64.88,0,0,1,467.78,120Z"/><path class="cls-1" d="M562.6,120l11.13-13.24c10.09,8.73,20.17,13.69,33.26,13.69,11.44,0,18.67-5.26,18.67-13.24v-.3c0-7.53-4.22-11.59-23.78-16.11-22.43-5.41-35.07-12-35.07-31.45V59c0-18.06,15.05-30.56,36-30.56,15.35,0,27.54,4.67,38.23,13.25l-9.93,14c-9.49-7.08-19-10.84-28.6-10.84-10.84,0-17.16,5.57-17.16,12.49v.3c0,8.13,4.82,11.74,25,16.56,22.27,5.42,33.86,13.39,33.86,30.85v.3c0,19.72-15.5,31.46-37.63,31.46A64.87,64.87,0,0,1,562.6,120Z"/><rect class="cls-1" x="356.01" y="29.22" width="91.19" height="17.3"/><rect class="cls-1" x="356.01" y="119.83" width="91.19" height="17.3"/><rect class="cls-1" x="356.01" y="74.52" width="91.19" height="17.3"/><path class="cls-2" d="M121.39,192.25l-3.47,7.88h-3.78l14-31.17h3.7l13.94,31.17h-3.88l-3.47-7.88ZM129.86,173l-7,15.81h14Z"/><path class="cls-2" d="M178.2,169c6.28,0,10.06,2.89,10.06,7.79a6.76,6.76,0,0,1-5.74,7c4.5.67,7.12,3.61,7.12,7.89,0,5.3-4.18,8.46-11.22,8.46H165.06V169Zm-9.58,13.45H178c4.19,0,6.64-1.83,6.64-5.08s-2.45-5-6.64-5h-9.4Zm0,14.34H178c5.08,0,8-2,8-5.57,0-3.38-2.94-5.39-8-5.39h-9.4Z"/><path class="cls-2" d="M201,181.87a8.76,8.76,0,0,1,8.42-5.34v3.52c-4.95-.09-8,3-8.42,7.61v12.47h-3.48V176.66H201Z"/><path class="cls-2" d="M219.19,169.93a2.27,2.27,0,1,1-2.27-2.4A2.28,2.28,0,0,1,219.19,169.93Zm-4,30.2V176.66h3.42v23.47Z"/><path class="cls-2" d="M249.78,200.13h-3.47v-5a9.8,9.8,0,0,1-9.13,5.21c-6.68,0-11.31-4.95-11.31-11.94s4.63-11.89,11.26-11.89a9.83,9.83,0,0,1,9.18,5.26V167.08h3.47Zm-3.47-11.67c0-5.12-3.52-8.81-8.46-8.81s-8.51,3.69-8.51,8.81,3.52,8.73,8.51,8.73S246.31,193.54,246.31,188.46Z"/><path class="cls-2" d="M280,197.68c0,6.86-4.68,11.18-11.81,11.18a15.83,15.83,0,0,1-9.62-3.39l1.61-2.67a12,12,0,0,0,7.88,3c5.12,0,8.46-3.11,8.46-8v-3.56a9.24,9.24,0,0,1-8.64,4.9c-6.32,0-10.69-4.68-10.69-11.36s4.32-11.18,10.6-11.22a9.38,9.38,0,0,1,8.73,4.9v-4.77H280Zm-3.48-9.8c0-4.9-3.34-8.32-8-8.32s-8,3.47-8.06,8.32,3.34,8.28,8.06,8.28S276.53,192.69,276.53,187.88Z"/><path class="cls-2" d="M309.21,189.75H290.06a8.21,8.21,0,0,0,8.5,7.48,9.79,9.79,0,0,0,7.26-2.93l1.92,2a12.35,12.35,0,0,1-9.44,3.91c-6.91,0-11.67-4.85-11.67-11.84s4.81-11.85,11.62-11.85C305.82,176.53,309.56,181.78,309.21,189.75Zm-3.12-2.85c-.23-4.49-3.25-7.34-7.84-7.34a7.91,7.91,0,0,0-8.19,7.34Z"/><path class="cls-2" d="M354.79,173.41l-2.14,2.72a13.09,13.09,0,0,0-9.22-3.92,12.3,12.3,0,1,0,0,24.58,13.62,13.62,0,0,0,9.22-3.74l2.18,2.45a17.24,17.24,0,0,1-11.58,4.81,15.86,15.86,0,0,1-16.12-15.81c0-8.73,7.22-15.63,16.26-15.63A16.85,16.85,0,0,1,354.79,173.41Z"/><path class="cls-2" d="M382.52,188.37c0,7-4.95,11.89-11.9,11.89s-11.88-4.85-11.88-11.89,4.94-11.8,11.88-11.8S382.52,181.38,382.52,188.37Zm-20.31,0c0,5.16,3.52,8.73,8.41,8.73s8.42-3.57,8.42-8.73-3.52-8.69-8.42-8.69S362.21,183.3,362.21,188.42Z"/><path class="cls-2" d="M428.51,185.66v14.47H425V186.59c0-4.18-2.44-6.63-6.5-6.63-4.85.13-7.66,3.6-7.66,8.64v11.53h-3.51V186.59c0-4.18-2.41-6.63-6.51-6.63-4.81.13-7.7,3.6-7.7,8.64v11.53h-3.43V176.66h3.43V182c1.56-3.65,4.72-5.39,9-5.43,4.41,0,7.44,2.27,8.42,6.14,1.47-4.14,4.76-6.1,9.26-6.14C425.26,176.53,428.51,180,428.51,185.66Z"/><path class="cls-2" d="M461.31,188.46c0,6.95-4.54,11.8-11.18,11.8A9.84,9.84,0,0,1,441,195.1v13.67h-3.47V176.66H441v5.08a9.75,9.75,0,0,1,9-5.21C456.68,176.53,461.31,181.43,461.31,188.46Zm-3.52-.09c0-5-3.47-8.72-8.37-8.72S441,183.3,441,188.37s3.48,8.73,8.42,8.73S457.79,193.45,457.79,188.37Z"/><path class="cls-2" d="M483.07,196.52c-1.87,2.54-4.85,3.79-8.59,3.79-4.86,0-8-3.12-8-7.17s3.25-6.68,8.77-6.73H483V185c0-3.43-2.13-5.47-6.28-5.47a12.9,12.9,0,0,0-7.43,2.67l-1.47-2.54c3-2,5.56-3.16,9.57-3.16,5.79,0,9,3.07,9,8.1l0,15.5h-3.39Zm0-4.49v-2.81h-7.3c-3.92,0-6,1.2-6,3.78s2.09,4.28,5.39,4.28C479.11,197.28,482.14,195.28,483,192Z"/><path class="cls-2" d="M516.77,185.66v14.47H513.3V186.59c0-4.14-2.5-6.59-6.64-6.59-4.63.05-7.48,3.07-7.88,7.53v12.6h-3.47V176.66h3.47v5.17c1.65-3.57,4.81-5.26,9.09-5.3C513.48,176.53,516.77,180,516.77,185.66Z"/><path class="cls-2" d="M532.12,203.47c-1.47,3.61-3.92,5.48-7,5.48a7.46,7.46,0,0,1-5-1.74l1.47-2.9a5.54,5.54,0,0,0,3.3,1.12c1.82,0,3.34-1.12,4.27-3.3l1-2.18-9.71-23.29h3.66L531.9,196l7.44-19.37h3.56Z"/></svg>