<svg xmlns="http://www.w3.org/2000/svg" viewBox="0 0 542.81 96.54">
  <g id="Layer_2" data-name="Layer 2">
    <g id="Layer_1-2" data-name="Layer 1">
      <g>
        <path d="M73.93,71.93H29.59L20.84,92.46h-17L43.78,3.77H60l40,88.69H82.8ZM68.49,59,51.76,20.24,35.16,59Z" fill="none" stroke="#fff" stroke-miterlimit="10" stroke-width="3"/>
        <path d="M126.83,87.84a43.39,43.39,0,0,1-17-16.29,45.1,45.1,0,0,1-6.15-23.44,44.84,44.84,0,0,1,6.21-23.44A44,44,0,0,1,127,8.39,49.91,49.91,0,0,1,151.22,2.5a50.71,50.71,0,0,1,19.9,3.8,40.73,40.73,0,0,1,15.2,11l-10.64,10A31.07,31.07,0,0,0,152,16.94a33.1,33.1,0,0,0-16.34,4A28.75,28.75,0,0,0,124.36,32a31.89,31.89,0,0,0-4,16.09,31.9,31.9,0,0,0,4,16.1,28.75,28.75,0,0,0,11.28,11.08,33.2,33.2,0,0,0,16.34,4,30.87,30.87,0,0,0,23.7-10.51L186.32,78.9a40.5,40.5,0,0,1-15.27,11,51.14,51.14,0,0,1-20,3.8A50.06,50.06,0,0,1,126.83,87.84Z" fill="none" stroke="#fff" stroke-miterlimit="10" stroke-width="3"/>
        <path d="M217.05,87.84a43.35,43.35,0,0,1-17-16.29,45.1,45.1,0,0,1-6.15-23.44,44.84,44.84,0,0,1,6.21-23.44,44,44,0,0,1,17-16.28A50,50,0,0,1,241.44,2.5a50.69,50.69,0,0,1,19.89,3.8,40.57,40.57,0,0,1,15.2,11l-10.64,10A31.06,31.06,0,0,0,242.2,16.94a33.17,33.17,0,0,0-16.35,4A28.73,28.73,0,0,0,214.58,32a31.8,31.8,0,0,0-4.06,16.09,31.81,31.81,0,0,0,4.06,16.1,28.73,28.73,0,0,0,11.27,11.08,33.27,33.27,0,0,0,16.35,4,30.87,30.87,0,0,0,23.69-10.51L276.53,78.9a40.47,40.47,0,0,1-15.26,11,51.19,51.19,0,0,1-20,3.8A50,50,0,0,1,217.05,87.84Z" fill="none" stroke="#fff" stroke-miterlimit="10" stroke-width="3"/>
        <path d="M404.93,90.81q-9.57-2.91-15.14-7.73l5.7-12.79a45,45,0,0,0,13.37,7A48.5,48.5,0,0,0,424.76,80q9.89,0,14.76-3.16t4.88-8.37a8.1,8.1,0,0,0-2.73-6.27,19,19,0,0,0-6.9-3.86q-4.18-1.4-11.4-3.17A130.94,130.94,0,0,1,407,50.39a26.89,26.89,0,0,1-10.77-7.53q-4.5-5.14-4.5-13.88a23.7,23.7,0,0,1,4-13.37q4-6,12-9.56t19.7-3.55a63.8,63.8,0,0,1,16,2,44,44,0,0,1,13.55,5.83l-5.19,12.79A51.16,51.16,0,0,0,439.58,18a45.59,45.59,0,0,0-12.29-1.78q-9.75,0-14.5,3.3A10.17,10.17,0,0,0,408,28.22a7.88,7.88,0,0,0,2.73,6.21,19.6,19.6,0,0,0,6.9,3.8q4.18,1.4,11.41,3.17a119.8,119.8,0,0,1,16.22,4.75,27.82,27.82,0,0,1,10.83,7.54q4.5,5.07,4.5,13.68a23.39,23.39,0,0,1-4,13.31q-4,6-12.1,9.5t-19.77,3.55A67.46,67.46,0,0,1,404.93,90.81Z" fill="none" stroke="#fff" stroke-miterlimit="10" stroke-width="3"/>
        <path d="M484.63,90.81q-9.57-2.91-15.14-7.73l5.7-12.79a45,45,0,0,0,13.36,7A48.56,48.56,0,0,0,504.46,80q9.89,0,14.76-3.16t4.88-8.37a8.1,8.1,0,0,0-2.73-6.27,19.16,19.16,0,0,0-6.9-3.86q-4.19-1.4-11.41-3.17a131.46,131.46,0,0,1-16.41-4.82,27,27,0,0,1-10.77-7.53Q471.4,37.72,471.39,29a23.7,23.7,0,0,1,4-13.37q4-6,12-9.56T507.12,2.5a63.72,63.72,0,0,1,16,2,43.93,43.93,0,0,1,13.56,5.83l-5.2,12.79A51.09,51.09,0,0,0,519.28,18,45.59,45.59,0,0,0,507,16.18q-9.76,0-14.51,3.3a10.16,10.16,0,0,0-4.75,8.74,7.88,7.88,0,0,0,2.73,6.21,19.51,19.51,0,0,0,6.9,3.8q4.18,1.4,11.4,3.17A119.36,119.36,0,0,1,525,46.15a27.78,27.78,0,0,1,10.84,7.54q4.48,5.07,4.49,13.68a23.39,23.39,0,0,1-4,13.31q-4,6-12.1,9.5t-19.76,3.55A67.36,67.36,0,0,1,484.63,90.81Z" fill="none" stroke="#fff" stroke-miterlimit="10" stroke-width="3"/>
        <path d="M375.6,20.54h-83V.54h83Zm-78-5h73v-10h-73Z" fill="#fff"/>
        <path d="M375.6,58.54h-83v-20h83Zm-78-5h73v-10h-73Z" fill="#fff"/>
        <path d="M375.6,96.54h-83v-20h83Zm-78-5h73v-10h-73Z" fill="#fff"/>
      </g>
    </g>
  </g>
</svg>
